<svg width="3001" height="3001" viewBox="0 0 3001 3001" fill="none" xmlns="http://www.w3.org/2000/svg">
<mask id="path-1-inside-1_95_159" fill="white">
<path d="M1501 3001C1159.1 3001 827.45 2884.2 561.007 2669.94C294.564 2455.68 109.313 2156.82 35.9435 1822.89C-37.4259 1488.95 5.48972 1139.96 157.581 833.748C309.672 527.534 561.81 282.467 872.226 139.147C1182.64 -4.17347 1532.71 -37.1462 1864.42 45.6912C2196.14 128.529 2489.6 322.205 2696.2 594.634C2902.79 867.063 3010.12 1201.9 3000.39 1543.66C2990.67 1885.43 2864.48 2213.62 2642.73 2473.86L2323.68 2202C2483.46 2014.48 2574.39 1778 2581.39 1531.74C2588.4 1285.48 2511.07 1044.21 2362.21 847.914C2213.34 651.614 2001.89 512.06 1762.87 452.371C1523.85 392.682 1271.61 416.441 1047.93 519.711C824.263 622.981 642.583 799.565 532.994 1020.21C423.404 1240.85 392.481 1492.31 445.347 1732.94C498.214 1973.56 631.697 2188.9 823.684 2343.28C1015.67 2497.67 1254.64 2581.83 1501 2581.83L1501 3001Z"/>
</mask>
<path d="M1501 3001C1159.1 3001 827.45 2884.2 561.007 2669.94C294.564 2455.68 109.313 2156.82 35.9435 1822.89C-37.4259 1488.95 5.48972 1139.96 157.581 833.748C309.672 527.534 561.81 282.467 872.226 139.147C1182.64 -4.17347 1532.71 -37.1462 1864.42 45.6912C2196.14 128.529 2489.6 322.205 2696.2 594.634C2902.79 867.063 3010.12 1201.9 3000.39 1543.66C2990.67 1885.43 2864.48 2213.62 2642.73 2473.86L2323.68 2202C2483.46 2014.48 2574.39 1778 2581.39 1531.74C2588.4 1285.48 2511.07 1044.21 2362.21 847.914C2213.34 651.614 2001.89 512.06 1762.87 452.371C1523.85 392.682 1271.61 416.441 1047.93 519.711C824.263 622.981 642.583 799.565 532.994 1020.21C423.404 1240.85 392.481 1492.31 445.347 1732.94C498.214 1973.56 631.697 2188.9 823.684 2343.28C1015.67 2497.67 1254.64 2581.83 1501 2581.83L1501 3001Z" stroke="url(#paint0_linear_95_159)" stroke-width="3185.99" mask="url(#path-1-inside-1_95_159)"/>
<defs>
<linearGradient id="paint0_linear_95_159" x1="3001" y1="1501" x2="745.651" y2="304.652" gradientUnits="userSpaceOnUse">
<stop stop-color="#37EBFF"/>
<stop offset="1" stop-color="#0541F0"/>
</linearGradient>
</defs>
</svg>
