<svg width="3001" height="3001" viewBox="0 0 3001 3001" fill="none" xmlns="http://www.w3.org/2000/svg">
<mask id="path-1-inside-1_94_157" fill="white">
<path d="M2970.65 1801.16C2915.67 2070.38 2787.78 2319.32 2600.97 2520.82C2414.15 2722.32 2175.57 2868.63 1911.27 2943.79C1646.97 3018.95 1367.1 3020.06 1102.21 2947.01C837.319 2873.96 597.583 2729.55 409.167 2529.54C220.75 2329.54 90.8928 2081.62 33.7659 1812.84C-23.3609 1544.07 -5.56182 1264.77 85.2207 1005.42C176.003 746.067 336.281 516.637 548.562 342.165C760.842 167.694 1016.97 54.8843 1288.99 16.0487L1364.2 542.837C1188.68 567.895 1023.41 640.685 886.439 753.262C749.465 865.84 646.046 1013.88 587.469 1181.22C528.892 1348.57 517.407 1528.79 554.268 1702.21C591.129 1875.64 674.919 2035.61 796.495 2164.66C918.07 2293.72 1072.76 2386.9 1243.68 2434.03C1414.6 2481.17 1595.18 2480.45 1765.72 2431.95C1936.26 2383.46 2090.2 2289.05 2210.75 2159.03C2331.29 2029.02 2413.81 1868.39 2449.28 1694.67L2970.65 1801.16Z"/>
</mask>
<path d="M2970.65 1801.16C2915.67 2070.38 2787.78 2319.32 2600.97 2520.82C2414.15 2722.32 2175.57 2868.63 1911.27 2943.79C1646.97 3018.95 1367.1 3020.06 1102.21 2947.01C837.319 2873.96 597.583 2729.55 409.167 2529.54C220.75 2329.54 90.8928 2081.62 33.7659 1812.84C-23.3609 1544.07 -5.56182 1264.77 85.2207 1005.42C176.003 746.067 336.281 516.637 548.562 342.165C760.842 167.694 1016.97 54.8843 1288.99 16.0487L1364.2 542.837C1188.68 567.895 1023.41 640.685 886.439 753.262C749.465 865.84 646.046 1013.88 587.469 1181.22C528.892 1348.57 517.407 1528.79 554.268 1702.21C591.129 1875.64 674.919 2035.61 796.495 2164.66C918.07 2293.72 1072.76 2386.9 1243.68 2434.03C1414.6 2481.17 1595.18 2480.45 1765.72 2431.95C1936.26 2383.46 2090.2 2289.05 2210.75 2159.03C2331.29 2029.02 2413.81 1868.39 2449.28 1694.67L2970.65 1801.16Z" stroke="url(#paint0_linear_94_157)" stroke-width="4401.49" mask="url(#path-1-inside-1_94_157)"/>
<mask id="path-2-inside-2_94_157" fill="white">
<path d="M2456.28 1696.5C2419.36 1877.28 2331.87 2043.87 2203.99 2176.88C2076.11 2309.89 1913.1 2403.87 1733.91 2447.87C1554.72 2491.88 1366.72 2484.11 1191.77 2425.46C1016.82 2366.82 862.122 2259.71 745.657 2116.6C629.192 1973.48 555.75 1800.25 533.874 1617.03C511.997 1433.82 542.585 1248.16 622.079 1081.65C701.573 915.141 826.707 774.62 982.927 676.433C1139.15 578.246 1320.03 526.427 1504.55 527.005L1503.46 872.708C1384.41 872.336 1267.69 905.771 1166.89 969.126C1066.09 1032.48 985.348 1123.15 934.055 1230.59C882.761 1338.03 863.025 1457.83 877.14 1576.05C891.256 1694.26 938.644 1806.04 1013.79 1898.39C1088.94 1990.73 1188.76 2059.84 1301.65 2097.68C1414.53 2135.52 1535.84 2140.54 1651.46 2112.14C1767.08 2083.75 1872.26 2023.11 1954.78 1937.29C2037.29 1851.46 2093.74 1743.97 2117.57 1627.32L2456.28 1696.5Z"/>
</mask>
<path d="M2456.28 1696.5C2419.36 1877.28 2331.87 2043.87 2203.99 2176.88C2076.11 2309.89 1913.1 2403.87 1733.91 2447.87C1554.72 2491.88 1366.72 2484.11 1191.77 2425.46C1016.82 2366.82 862.122 2259.71 745.657 2116.6C629.192 1973.48 555.75 1800.25 533.874 1617.03C511.997 1433.82 542.585 1248.16 622.079 1081.65C701.573 915.141 826.707 774.62 982.927 676.433C1139.15 578.246 1320.03 526.427 1504.55 527.005L1503.46 872.708C1384.41 872.336 1267.69 905.771 1166.89 969.126C1066.09 1032.48 985.348 1123.15 934.055 1230.59C882.761 1338.03 863.025 1457.83 877.14 1576.05C891.256 1694.26 938.644 1806.04 1013.79 1898.39C1088.94 1990.73 1188.76 2059.84 1301.65 2097.68C1414.53 2135.52 1535.84 2140.54 1651.46 2112.14C1767.08 2083.75 1872.26 2023.11 1954.78 1937.29C2037.29 1851.46 2093.74 1743.97 2117.57 1627.32L2456.28 1696.5Z" stroke="url(#paint1_linear_94_157)" stroke-width="2859.49" mask="url(#path-2-inside-2_94_157)"/>
<mask id="path-3-inside-3_94_157" fill="white">
<path d="M2108.34 1315.61C2143.44 1430.61 2145.17 1553.21 2113.33 1669.15C2081.5 1785.09 2017.4 1889.61 1928.49 1970.55C1839.58 2051.49 1729.53 2105.53 1611.11 2126.38C1492.7 2147.23 1370.81 2134.03 1259.6 2088.32C1148.39 2042.62 1052.45 1966.28 982.926 1868.18C913.402 1770.09 873.156 1654.27 866.869 1534.21C860.582 1414.14 888.512 1294.75 947.41 1189.93C1006.31 1085.11 1093.75 999.171 1199.58 942.099L1501 1501L2108.34 1315.61Z"/>
</mask>
<path d="M2108.34 1315.61C2143.44 1430.61 2145.17 1553.21 2113.33 1669.15C2081.5 1785.09 2017.4 1889.61 1928.49 1970.55C1839.58 2051.49 1729.53 2105.53 1611.11 2126.38C1492.7 2147.23 1370.81 2134.03 1259.6 2088.32C1148.39 2042.62 1052.45 1966.28 982.926 1868.18C913.402 1770.09 873.156 1654.27 866.869 1534.21C860.582 1414.14 888.512 1294.75 947.41 1189.93C1006.31 1085.11 1093.75 999.171 1199.58 942.099L1501 1501L2108.34 1315.61Z" stroke="url(#paint2_linear_94_157)" stroke-width="1863.3" mask="url(#path-3-inside-3_94_157)"/>
<defs>
<linearGradient id="paint0_linear_94_157" x1="1378.5" y1="1388" x2="640.5" y2="390" gradientUnits="userSpaceOnUse">
<stop stop-color="#37EBFF"/>
<stop offset="1" stop-color="#0541F0"/>
</linearGradient>
<linearGradient id="paint1_linear_94_157" x1="1421.92" y1="1428.09" x2="942.466" y2="779.725" gradientUnits="userSpaceOnUse">
<stop stop-color="#37EBFF"/>
<stop offset="1" stop-color="#0541F0"/>
</linearGradient>
<linearGradient id="paint2_linear_94_157" x1="1432.6" y1="1483.73" x2="956.378" y2="1261.66" gradientUnits="userSpaceOnUse">
<stop stop-color="#37EBFF"/>
<stop offset="1" stop-color="#0541F0"/>
</linearGradient>
</defs>
</svg>
